<?xml version="1.0" standalone="no"?>
<!DOCTYPE svg PUBLIC "-//W3C//DTD SVG 20010904//EN"
 "http://www.w3.org/TR/2001/REC-SVG-20010904/DTD/svg10.dtd">
<svg version="1.0" xmlns="http://www.w3.org/2000/svg"
 width="1080.000000pt" height="1080.000000pt" viewBox="0 0 1080.000000 1080.000000"
 preserveAspectRatio="xMidYMid meet">
<metadata>
Created by potrace 1.14, written by Peter Selinger 2001-2017
</metadata>
<g transform="translate(0.000000,1080.000000) scale(0.100000,-0.100000)"
fill="#000000" stroke="none">
<path d="M2205 9063 c-222 -47 -411 -231 -466 -453 -12 -46 -14 -507 -14
-2840 0 -2671 1 -2788 18 -2857 25 -95 91 -204 168 -279 72 -68 131 -106 228
-143 l66 -26 611 -3 612 -3 4 -217 c4 -196 7 -223 27 -275 33 -84 94 -153 171
-196 l65 -36 480 0 480 0 50 26 c66 35 138 110 172 178 27 55 28 58 31 289 l4
232 486 -2 487 -3 5 -235 c5 -233 5 -235 33 -288 36 -68 100 -133 169 -169
l53 -28 480 0 480 0 50 27 c84 44 155 127 189 218 5 14 12 126 15 250 l6 225
615 5 c599 6 616 6 670 27 121 47 197 99 274 184 55 61 121 192 136 268 14 72
14 5588 0 5660 -23 121 -125 280 -228 356 -70 52 -159 92 -245 109 -68 14
-397 16 -3194 15 -2724 -1 -3127 -3 -3188 -16z m2775 -762 l35 -29 5 -193 5
-194 34 -68 c54 -108 150 -187 256 -210 35 -7 543 -12 1658 -14 l1607 -3 0
-110 0 -110 -3305 0 -3305 0 0 480 0 480 1488 0 1488 0 34 -29z m3668 -1188
l182 -6 0 -2030 c0 -1815 -2 -2036 -16 -2091 -28 -111 -102 -199 -210 -248
-49 -23 -49 -23 -646 -26 l-598 -3 0 550 0 550 228 3 227 3 66 32 c78 39 140
102 177 181 23 49 27 70 27 152 0 168 4 163 -462 608 l-143 135 0 637 c0 621
0 638 -21 699 -16 45 -36 78 -76 121 -64 69 -131 105 -223 120 -85 13 -496 13
-580 -1 -180 -29 -307 -159 -318 -326 -2 -35 -8 -63 -13 -63 -8 0 -113 100
-414 391 -185 179 -224 206 -338 235 -74 19 -179 14 -247 -12 -80 -31 -135
-76 -367 -299 -125 -120 -325 -312 -443 -425 -118 -113 -273 -261 -345 -330
-71 -69 -184 -177 -250 -240 -142 -135 -279 -267 -465 -446 -594 -570 -606
-583 -634 -637 -94 -188 -23 -400 169 -500 l60 -32 230 -5 230 -5 3 -548 2
-548 -602 3 -603 3 -50 24 c-70 35 -148 112 -182 179 l-28 57 -3 2073 -2 2072
3248 0 c1787 0 3331 -3 3430 -7z m-3145 -652 c21 -16 122 -110 225 -209 203
-195 255 -245 407 -390 55 -52 154 -147 220 -211 66 -64 212 -204 325 -311
112 -107 265 -254 339 -325 75 -72 172 -164 215 -205 43 -41 107 -102 141
-135 34 -33 148 -143 253 -244 152 -145 194 -192 203 -222 14 -45 2 -84 -38
-121 -24 -23 -28 -23 -266 -26 l-242 -2 -65 61 c-36 33 -117 109 -180 167 -63
59 -153 143 -200 187 -47 45 -114 108 -150 140 -36 33 -67 62 -70 65 -3 3 -79
75 -170 160 -91 84 -199 185 -241 224 -41 39 -102 96 -135 126 -32 31 -131
123 -219 205 -88 83 -183 165 -210 183 -146 96 -356 94 -503 -6 -22 -15 -100
-83 -173 -152 -73 -69 -140 -132 -149 -140 -9 -8 -45 -42 -81 -75 -35 -32
-102 -95 -149 -139 -47 -44 -112 -105 -145 -136 -33 -31 -132 -123 -220 -205
-88 -82 -194 -180 -235 -219 -42 -39 -134 -125 -205 -191 -71 -66 -162 -151
-202 -188 l-73 -68 -246 3 -246 3 -29 33 c-24 27 -29 41 -29 84 0 58 -14 41
250 293 63 60 176 168 250 240 397 382 563 541 571 545 5 3 66 62 136 130 71
69 225 217 343 330 300 287 446 427 580 557 218 211 221 213 310 213 56 -1 70
-5 103 -29z m-21 -1084 c26 -12 73 -47 105 -77 32 -30 189 -176 348 -325 160
-148 362 -337 450 -420 88 -82 287 -269 443 -414 l282 -264 0 -906 c0 -891 0
-907 -20 -939 -37 -60 -49 -62 -470 -62 -356 0 -383 1 -418 19 -70 35 -66 3
-72 756 -5 680 -5 680 -27 726 -37 75 -106 145 -181 181 l-67 33 -455 0 -455
0 -57 -27 c-71 -33 -153 -108 -183 -168 -43 -86 -45 -120 -45 -788 0 -685 1
-666 -53 -706 -28 -20 -40 -21 -423 -24 -426 -3 -430 -2 -476 52 -16 20 -17
75 -18 943 l0 922 25 19 c24 19 97 87 450 417 308 288 601 562 760 710 88 81
194 180 235 219 115 109 125 117 167 131 55 20 102 18 155 -8z m345 -1957 c62
-37 63 -46 63 -395 l0 -315 -490 0 -490 0 0 323 c0 301 1 324 19 351 37 56 34
55 466 56 379 0 402 -1 432 -20z"/>
<path d="M4625 8098 c-16 -6 -41 -21 -55 -34 l-25 -23 -35 27 c-28 22 -45 27
-92 27 -51 0 -61 -3 -89 -32 -25 -24 -33 -42 -36 -80 -4 -42 -1 -53 27 -91
l31 -43 -30 -35 c-61 -68 -32 -176 55 -209 37 -14 44 -14 80 1 21 9 49 25 62
37 l22 20 24 -22 c57 -53 155 -47 201 13 41 53 32 128 -22 184 -10 11 -7 21
19 53 24 30 31 49 31 83 0 89 -86 153 -168 124z"/>
<path d="M2378 7948 c-20 -18 -41 -48 -47 -67 -10 -30 -8 -41 11 -80 43 -85
-8 -79 790 -80 790 -1 745 -5 788 70 25 46 25 69 0 119 -38 74 3 70 -793 70
l-714 0 -35 -32z"/>
</g>
</svg>
